<svg width="1080" height="1080" viewBox="0 0 1080 1080" fill="none" xmlns="http://www.w3.org/2000/svg">
<g clip-path="url(#clip0_1_143)">
<rect width="1080" height="1080" fill="#EDEBDF"/>
<path d="M331.652 550.498C331.431 549.834 331.32 549.336 331.32 549.004C331.32 546.68 331.708 545.518 332.482 545.518C333.589 545.518 335.194 545.241 337.297 544.688C339.4 544.134 341.447 543.415 343.439 542.529C345.432 541.533 346.76 540.482 347.424 539.375C347.867 538.711 348.365 537.66 348.918 536.221C349.471 534.671 350.08 532.679 350.744 530.244L370.002 458.857C371.109 454.541 371.662 451.442 371.662 449.561C371.662 448.675 370.943 447.9 369.504 447.236C368.176 446.572 366.626 446.074 364.855 445.742C363.085 445.299 361.646 445.078 360.539 445.078C360.428 445.078 360.373 444.746 360.373 444.082C360.373 442.09 360.76 440.762 361.535 440.098C366.184 440.319 369.947 440.485 372.824 440.596C375.702 440.706 377.694 440.762 378.801 440.762C379.686 440.762 381.402 440.706 383.947 440.596C386.604 440.485 390.035 440.319 394.24 440.098C394.462 442.201 395.624 449.727 397.727 462.676C399.829 475.514 402.873 493.776 406.857 517.461H407.023C407.355 517.461 407.521 517.35 407.521 517.129C415.933 500.97 422.518 488.187 427.277 478.779C432.036 469.372 435.025 463.451 436.242 461.016L445.539 440.264C448.195 440.596 452.014 440.762 456.994 440.762C459.097 440.762 461.698 440.706 464.797 440.596C468.007 440.485 471.714 440.319 475.92 440.098C475.92 443.418 475.477 445.078 474.592 445.078C471.05 445.078 468.394 446.296 466.623 448.73C465.074 450.833 463.801 455.703 462.805 463.34C460.702 482.598 459.042 497.705 457.824 508.662C456.717 519.619 456.053 526.481 455.832 529.248C455.611 531.351 455.445 533.288 455.334 535.059C455.223 536.719 455.168 538.268 455.168 539.707C455.168 543.027 458.101 544.964 463.967 545.518C464.188 545.518 464.299 546.016 464.299 547.012C464.299 548.229 463.911 549.391 463.137 550.498L444.377 549.502C441.721 549.502 437.958 549.668 433.088 550C428.329 550.332 425.451 550.498 424.455 550.498C424.234 550.055 424.123 549.668 424.123 549.336C424.123 546.79 424.455 545.518 425.119 545.518C426.005 545.518 427.222 545.352 428.771 545.02C430.321 544.577 431.815 544.079 433.254 543.525C434.803 542.972 435.744 542.363 436.076 541.699C437.404 539.486 438.511 534.616 439.396 527.09L445.041 472.969C445.152 471.862 445.207 470.7 445.207 469.482C445.318 468.265 445.373 466.992 445.373 465.664C445.373 464.779 445.152 464.336 444.709 464.336C444.488 464.336 444.211 464.613 443.879 465.166L402.873 544.854C402.32 545.85 401.268 547.012 399.719 548.34C398.28 549.668 396.896 550.332 395.568 550.332C395.347 550.332 394.904 550.221 394.24 550L379.631 462.842C379.52 462.399 379.41 462.178 379.299 462.178C379.077 462.178 378.911 462.399 378.801 462.842C367.18 504.788 361.037 527.533 360.373 531.074L358.381 539.707C358.381 540.703 359.266 541.644 361.037 542.529C362.808 543.415 364.689 544.134 366.682 544.688C368.785 545.241 370.223 545.518 370.998 545.518C371.219 545.518 371.33 545.794 371.33 546.348C371.33 547.786 370.998 549.17 370.334 550.498C365.243 550.277 361.092 550.111 357.883 550C354.673 549.779 352.46 549.668 351.242 549.668L331.652 550.498ZM569.221 551.162C567.118 551.162 565.402 550.387 564.074 548.838C562.746 547.178 562.082 544.909 562.082 542.031C562.082 540.924 562.193 539.541 562.414 537.881C562.635 536.11 562.967 534.007 563.41 531.572L568.225 507.998C569.221 503.46 569.719 500.361 569.719 498.701C569.719 496.377 569.442 494.661 568.889 493.555C568.335 492.337 567.284 491.729 565.734 491.729C564.074 491.729 561.971 493.057 559.426 495.713C556.991 498.369 554.445 501.855 551.789 506.172C549.243 510.378 546.919 514.915 544.816 519.785C542.824 524.544 541.385 529.082 540.5 533.398L537.18 550C535.741 550.221 534.357 550.387 533.029 550.498C531.812 550.609 530.65 550.664 529.543 550.664C528.104 550.664 526.776 550.609 525.559 550.498C524.341 550.387 523.124 550.221 521.906 550L530.539 506.338C530.982 504.456 531.258 502.852 531.369 501.523C531.59 500.195 531.701 499.144 531.701 498.369C531.701 493.942 530.318 491.729 527.551 491.729C525.78 491.729 523.677 493.112 521.242 495.879C518.807 498.535 516.317 502.077 513.771 506.504C511.337 510.82 509.068 515.413 506.965 520.283C504.973 525.153 503.534 529.746 502.648 534.062L499.328 550C498.111 550.221 496.838 550.387 495.51 550.498C494.292 550.719 493.075 550.83 491.857 550.83C490.751 550.83 489.533 550.719 488.205 550.498C486.988 550.387 485.66 550.221 484.221 550L494.182 498.535C494.403 497.318 494.569 496.266 494.68 495.381C494.79 494.495 494.846 493.776 494.846 493.223C494.846 490.566 494.292 489.238 493.186 489.238C492.3 489.238 491.138 489.736 489.699 490.732C488.26 491.729 486.877 492.891 485.549 494.219C484.221 495.547 483.225 496.654 482.561 497.539C482.229 497.539 481.675 496.986 480.9 495.879C480.236 494.772 479.904 493.997 479.904 493.555C480.568 492.227 481.786 490.622 483.557 488.74C485.438 486.859 487.596 485.033 490.031 483.262C492.466 481.38 494.901 479.831 497.336 478.613C499.771 477.285 501.929 476.621 503.811 476.621C505.913 476.621 507.629 477.451 508.957 479.111C510.396 480.661 511.115 482.819 511.115 485.586C511.115 486.693 511.005 488.076 510.783 489.736C510.673 491.286 510.396 493.167 509.953 495.381L507.961 505.176C509.621 501.966 511.613 498.701 513.938 495.381C516.262 492.061 518.697 489.017 521.242 486.25C523.898 483.372 526.389 481.048 528.713 479.277C531.148 477.507 533.306 476.621 535.188 476.621C543.378 476.621 547.473 482.266 547.473 493.555C547.473 494.772 546.975 498.148 545.979 503.682C547.639 500.693 549.631 497.65 551.955 494.551C554.39 491.341 556.88 488.408 559.426 485.752C562.082 482.985 564.628 480.771 567.062 479.111C569.608 477.451 571.822 476.621 573.703 476.621C581.672 476.621 585.656 481.491 585.656 491.23C585.656 493.223 585.435 495.713 584.992 498.701C584.549 501.689 583.885 505.176 583 509.16L578.684 530.576C578.573 531.019 578.462 531.572 578.352 532.236C578.352 532.9 578.352 533.675 578.352 534.561C578.352 537.327 578.905 538.711 580.012 538.711C581.672 538.711 583.553 537.66 585.656 535.557C587.759 533.454 589.696 531.517 591.467 529.746C591.688 529.746 592.186 530.299 592.961 531.406C593.736 532.402 594.123 533.122 594.123 533.564C593.459 534.893 592.186 536.553 590.305 538.545C588.423 540.537 586.21 542.474 583.664 544.355C581.229 546.237 578.684 547.842 576.027 549.17C573.482 550.498 571.213 551.162 569.221 551.162ZM689.582 551.162C687.479 551.162 685.764 550.387 684.436 548.838C683.107 547.178 682.443 544.909 682.443 542.031C682.443 540.924 682.554 539.541 682.775 537.881C682.997 536.11 683.329 534.007 683.771 531.572L688.586 507.998C689.582 503.46 690.08 500.361 690.08 498.701C690.08 496.377 689.803 494.661 689.25 493.555C688.697 492.337 687.645 491.729 686.096 491.729C684.436 491.729 682.333 493.057 679.787 495.713C677.352 498.369 674.807 501.855 672.15 506.172C669.605 510.378 667.281 514.915 665.178 519.785C663.186 524.544 661.747 529.082 660.861 533.398L657.541 550C656.102 550.221 654.719 550.387 653.391 550.498C652.173 550.609 651.011 550.664 649.904 550.664C648.465 550.664 647.137 550.609 645.92 550.498C644.702 550.387 643.485 550.221 642.268 550L650.9 506.338C651.343 504.456 651.62 502.852 651.73 501.523C651.952 500.195 652.062 499.144 652.062 498.369C652.062 493.942 650.679 491.729 647.912 491.729C646.141 491.729 644.038 493.112 641.604 495.879C639.169 498.535 636.678 502.077 634.133 506.504C631.698 510.82 629.429 515.413 627.326 520.283C625.334 525.153 623.895 529.746 623.01 534.062L619.689 550C618.472 550.221 617.199 550.387 615.871 550.498C614.654 550.719 613.436 550.83 612.219 550.83C611.112 550.83 609.895 550.719 608.566 550.498C607.349 550.387 606.021 550.221 604.582 550L614.543 498.535C614.764 497.318 614.93 496.266 615.041 495.381C615.152 494.495 615.207 493.776 615.207 493.223C615.207 490.566 614.654 489.238 613.547 489.238C612.661 489.238 611.499 489.736 610.061 490.732C608.622 491.729 607.238 492.891 605.91 494.219C604.582 495.547 603.586 496.654 602.922 497.539C602.59 497.539 602.036 496.986 601.262 495.879C600.598 494.772 600.266 493.997 600.266 493.555C600.93 492.227 602.147 490.622 603.918 488.74C605.799 486.859 607.958 485.033 610.393 483.262C612.827 481.38 615.262 479.831 617.697 478.613C620.132 477.285 622.29 476.621 624.172 476.621C626.275 476.621 627.99 477.451 629.318 479.111C630.757 480.661 631.477 482.819 631.477 485.586C631.477 486.693 631.366 488.076 631.145 489.736C631.034 491.286 630.757 493.167 630.314 495.381L628.322 505.176C629.982 501.966 631.975 498.701 634.299 495.381C636.623 492.061 639.058 489.017 641.604 486.25C644.26 483.372 646.75 481.048 649.074 479.277C651.509 477.507 653.667 476.621 655.549 476.621C663.739 476.621 667.834 482.266 667.834 493.555C667.834 494.772 667.336 498.148 666.34 503.682C668 500.693 669.992 497.65 672.316 494.551C674.751 491.341 677.242 488.408 679.787 485.752C682.443 482.985 684.989 480.771 687.424 479.111C689.969 477.451 692.183 476.621 694.064 476.621C702.033 476.621 706.018 481.491 706.018 491.23C706.018 493.223 705.796 495.713 705.354 498.701C704.911 501.689 704.247 505.176 703.361 509.16L699.045 530.576C698.934 531.019 698.824 531.572 698.713 532.236C698.713 532.9 698.713 533.675 698.713 534.561C698.713 537.327 699.266 538.711 700.373 538.711C702.033 538.711 703.915 537.66 706.018 535.557C708.12 533.454 710.057 531.517 711.828 529.746C712.049 529.746 712.548 530.299 713.322 531.406C714.097 532.402 714.484 533.122 714.484 533.564C713.82 534.893 712.548 536.553 710.666 538.545C708.785 540.537 706.571 542.474 704.025 544.355C701.59 546.237 699.045 547.842 696.389 549.17C693.843 550.498 691.574 551.162 689.582 551.162ZM724.943 551.992C722.287 551.992 720.24 551.051 718.801 549.17C717.362 547.288 716.643 545.186 716.643 542.861C716.643 538.988 717.915 535.889 720.461 533.564C723.117 531.13 725.939 529.912 728.928 529.912C731.584 529.912 733.687 530.853 735.236 532.734C736.896 534.616 737.561 536.94 737.229 539.707C736.896 542.917 735.513 545.794 733.078 548.34C730.643 550.775 727.932 551.992 724.943 551.992Z" fill="#1A28A9"/>
<path d="M-396.741 456.076C-413.654 453.396 -384.599 435.714 -381.882 433.528C-337.098 397.502 -289.152 370.801 -230.551 375.547C-167.906 380.62 -98.0511 406.107 -40.1161 430.307C125.736 499.583 202.086 701.994 277.014 853.887C353.605 1009.15 424.19 1167.22 488.565 1328.2C516.517 1398.1 547.054 1466.58 594.927 1524.69C645.705 1586.33 705.312 1641.08 764.636 1693.8C808.289 1732.59 861.016 1777.1 920.269 1783.99C1038.75 1797.77 1120.44 1667.36 1176.01 1579.85C1270.52 1431.01 1443.75 1238.13 1638.99 1316.12C1817.41 1387.39 1895.55 1619.29 2078.91 1675.68C2188.01 1709.24 2287.35 1666.87 2360.85 1581.86C2427.5 1504.78 2472.76 1410.8 2530.95 1327.39C2622.79 1195.74 2738.62 1036.41 2881.71 959.379C2974.48 909.434 3088.36 904.135 3190.23 894.956C3315.2 883.697 3456.08 949.276 3552.72 1027.02C3702.75 1147.71 3816.1 1308.44 3932.81 1461.07C3994.53 1541.79 4056.29 1646.16 4154.14 1684.54C4178.59 1694.13 4203.87 1702.22 4230.39 1696.62C4268.36 1688.6 4270.52 1656.54 4291 1630.18" stroke="#75C659" stroke-width="200" stroke-linecap="round"/>
</g>
<defs>
<clipPath id="clip0_1_143">
<rect width="1080" height="1080" fill="white"/>
</clipPath>
</defs>
</svg>
